G04 (created by PCBnew (20090216-final)) date Tue 01 Mar 2011 05:24:10 PM MST*
G01*
G70*
G90*
%MOIN*%
G04 Gerber Fmt 3.4, Leading zero omitted, Abs format*
%FSLAX34Y34*%
G04 APERTURE LIST*
%ADD10C,0.015000*%
%ADD11C,0.150000*%
%ADD12C,0.074000*%
%ADD13C,0.059100*%
%ADD14R,0.050000X0.022000*%
%ADD15R,0.022000X0.050000*%
%ADD16R,0.066900X0.027500*%
%ADD17R,0.039300X0.043300*%
%ADD18R,0.031400X0.031400*%
%ADD19R,0.024800X0.032600*%
%ADD20R,0.080000X0.033400*%
%ADD21C,0.002600*%
%ADD22C,0.006000*%
%ADD23C,0.003000*%
%ADD24C,0.008000*%
%ADD25C,0.002000*%
%ADD26C,0.004000*%
%ADD27C,0.000100*%
%ADD28C,0.003500*%
%ADD29C,0.012000*%
%ADD30C,0.005000*%
G04 APERTURE END LIST*
G54D10*
X10000Y-37500D02*
X10000Y-12500D01*
X35000Y-37500D02*
X10000Y-37500D01*
X35000Y-12500D02*
X35000Y-37500D01*
X10000Y-12500D02*
X35000Y-12500D01*
X35000Y-25000D02*
X34761Y-27427D01*
X34761Y-27427D02*
X34056Y-29763D01*
X34056Y-29763D02*
X32911Y-31917D01*
X32911Y-31917D02*
X31369Y-33807D01*
X31369Y-33807D02*
X29489Y-35362D01*
X29489Y-35362D02*
X27343Y-36523D01*
X27343Y-36523D02*
X25013Y-37244D01*
X25013Y-37244D02*
X22587Y-37499D01*
X22587Y-37499D02*
X20158Y-37278D01*
X20158Y-37278D02*
X17818Y-36589D01*
X17818Y-36589D02*
X15656Y-35459D01*
X15656Y-35459D02*
X13755Y-33930D01*
X13755Y-33930D02*
X12187Y-32062D01*
X12187Y-32062D02*
X11011Y-29924D01*
X11011Y-29924D02*
X10274Y-27598D01*
X10274Y-27598D02*
X10002Y-25174D01*
X10002Y-25174D02*
X10206Y-22744D01*
X10206Y-22744D02*
X10878Y-20399D01*
X10878Y-20399D02*
X11993Y-18229D01*
X11993Y-18229D02*
X13509Y-16317D01*
X13509Y-16317D02*
X15367Y-14736D01*
X15367Y-14736D02*
X17496Y-13546D01*
X17496Y-13546D02*
X19816Y-12792D01*
X19816Y-12792D02*
X22239Y-12503D01*
X22239Y-12503D02*
X24670Y-12690D01*
X24670Y-12690D02*
X27020Y-13346D01*
X27020Y-13346D02*
X29197Y-14446D01*
X29197Y-14446D02*
X31120Y-15948D01*
X31120Y-15948D02*
X32714Y-17795D01*
X32714Y-17795D02*
X33919Y-19916D01*
X33919Y-19916D02*
X34689Y-22231D01*
X34689Y-22231D02*
X34995Y-24651D01*
X34995Y-24651D02*
X35000Y-25000D01*
G54D21*
X21100Y-19488D02*
X21100Y-19308D01*
X21100Y-19803D02*
X21100Y-19623D01*
X21100Y-20118D02*
X21100Y-19938D01*
X21100Y-20433D02*
X21100Y-20253D01*
X21100Y-20747D02*
X21100Y-20567D01*
X21100Y-21062D02*
X21100Y-20882D01*
X21100Y-21377D02*
X21100Y-21197D01*
X21100Y-21692D02*
X21100Y-21512D01*
X21308Y-21900D02*
X21488Y-21900D01*
X21623Y-21900D02*
X21803Y-21900D01*
X21938Y-21900D02*
X22118Y-21900D01*
X22253Y-21900D02*
X22433Y-21900D01*
X22567Y-21900D02*
X22747Y-21900D01*
X22882Y-21900D02*
X23062Y-21900D01*
X23197Y-21900D02*
X23377Y-21900D01*
X23512Y-21900D02*
X23692Y-21900D01*
X23900Y-21692D02*
X23900Y-21512D01*
X23900Y-21377D02*
X23900Y-21197D01*
X23900Y-21062D02*
X23900Y-20882D01*
X23900Y-20747D02*
X23900Y-20567D01*
X23900Y-20433D02*
X23900Y-20253D01*
X23900Y-20118D02*
X23900Y-19938D01*
X23900Y-19803D02*
X23900Y-19623D01*
X23900Y-19488D02*
X23900Y-19308D01*
X23512Y-19100D02*
X23692Y-19100D01*
X23197Y-19100D02*
X23377Y-19100D01*
X22882Y-19100D02*
X23062Y-19100D01*
X22567Y-19100D02*
X22747Y-19100D01*
X22253Y-19100D02*
X22433Y-19100D01*
X21938Y-19100D02*
X22118Y-19100D01*
X21623Y-19100D02*
X21803Y-19100D01*
X21308Y-19100D02*
X21488Y-19100D01*
G54D22*
X23879Y-19121D02*
X23879Y-21879D01*
X23879Y-21879D02*
X21121Y-21879D01*
X21121Y-21879D02*
X21121Y-19260D01*
X21260Y-19121D02*
X23879Y-19121D01*
X21260Y-19121D02*
X21121Y-19260D01*
G54D23*
X21518Y-19420D02*
X21516Y-19439D01*
X21516Y-19439D02*
X21510Y-19457D01*
X21510Y-19457D02*
X21501Y-19474D01*
X21501Y-19474D02*
X21489Y-19489D01*
X21489Y-19489D02*
X21474Y-19501D01*
X21474Y-19501D02*
X21457Y-19510D01*
X21457Y-19510D02*
X21439Y-19515D01*
X21439Y-19515D02*
X21420Y-19517D01*
X21420Y-19517D02*
X21402Y-19516D01*
X21402Y-19516D02*
X21384Y-19510D01*
X21384Y-19510D02*
X21367Y-19502D01*
X21367Y-19502D02*
X21352Y-19490D01*
X21352Y-19490D02*
X21340Y-19475D01*
X21340Y-19475D02*
X21330Y-19458D01*
X21330Y-19458D02*
X21325Y-19440D01*
X21325Y-19440D02*
X21323Y-19421D01*
X21323Y-19421D02*
X21324Y-19403D01*
X21324Y-19403D02*
X21329Y-19384D01*
X21329Y-19384D02*
X21338Y-19367D01*
X21338Y-19367D02*
X21350Y-19352D01*
X21350Y-19352D02*
X21365Y-19340D01*
X21365Y-19340D02*
X21381Y-19331D01*
X21381Y-19331D02*
X21399Y-19325D01*
X21399Y-19325D02*
X21418Y-19323D01*
X21418Y-19323D02*
X21437Y-19324D01*
X21437Y-19324D02*
X21455Y-19329D01*
X21455Y-19329D02*
X21472Y-19338D01*
X21472Y-19338D02*
X21487Y-19350D01*
X21487Y-19350D02*
X21500Y-19364D01*
X21500Y-19364D02*
X21509Y-19381D01*
X21509Y-19381D02*
X21515Y-19399D01*
X21515Y-19399D02*
X21517Y-19418D01*
X21517Y-19418D02*
X21518Y-19420D01*
G54D24*
X20455Y-23708D02*
X19945Y-23708D01*
X19945Y-22292D02*
X20455Y-22292D01*
G54D21*
X18715Y-30470D02*
X18715Y-30667D01*
X18715Y-30667D02*
X19089Y-30667D01*
X19089Y-30470D02*
X19089Y-30667D01*
X18715Y-30470D02*
X19089Y-30470D01*
X18715Y-30930D02*
X18715Y-31126D01*
X18715Y-31126D02*
X19089Y-31126D01*
X19089Y-30930D02*
X19089Y-31126D01*
X18715Y-30930D02*
X19089Y-30930D01*
X18782Y-30722D02*
X18782Y-30878D01*
X18782Y-30878D02*
X19018Y-30878D01*
X19018Y-30722D02*
X19018Y-30878D01*
X18782Y-30722D02*
X19018Y-30722D01*
X18750Y-30710D02*
X18750Y-30890D01*
X18750Y-30890D02*
X19050Y-30890D01*
X19050Y-30710D02*
X19050Y-30890D01*
X18750Y-30710D02*
X19050Y-30710D01*
G54D25*
X19287Y-30221D02*
X19287Y-31379D01*
X19287Y-31379D02*
X18513Y-31379D01*
X18513Y-31379D02*
X18513Y-30221D01*
X18513Y-30221D02*
X19287Y-30221D01*
G54D26*
X19070Y-30660D02*
X19070Y-30940D01*
X18736Y-30660D02*
X18736Y-30940D01*
G54D21*
X17815Y-30470D02*
X17815Y-30667D01*
X17815Y-30667D02*
X18189Y-30667D01*
X18189Y-30470D02*
X18189Y-30667D01*
X17815Y-30470D02*
X18189Y-30470D01*
X17815Y-30930D02*
X17815Y-31126D01*
X17815Y-31126D02*
X18189Y-31126D01*
X18189Y-30930D02*
X18189Y-31126D01*
X17815Y-30930D02*
X18189Y-30930D01*
X17882Y-30722D02*
X17882Y-30878D01*
X17882Y-30878D02*
X18118Y-30878D01*
X18118Y-30722D02*
X18118Y-30878D01*
X17882Y-30722D02*
X18118Y-30722D01*
X17850Y-30710D02*
X17850Y-30890D01*
X17850Y-30890D02*
X18150Y-30890D01*
X18150Y-30710D02*
X18150Y-30890D01*
X17850Y-30710D02*
X18150Y-30710D01*
G54D25*
X18387Y-30221D02*
X18387Y-31379D01*
X18387Y-31379D02*
X17613Y-31379D01*
X17613Y-31379D02*
X17613Y-30221D01*
X17613Y-30221D02*
X18387Y-30221D01*
G54D26*
X18170Y-30660D02*
X18170Y-30940D01*
X17836Y-30660D02*
X17836Y-30940D01*
G54D24*
X17819Y-32366D02*
X18000Y-32366D01*
X18181Y-32366D02*
X18000Y-32366D01*
X18000Y-32366D02*
X17908Y-32245D01*
X18010Y-32360D02*
X18085Y-32245D01*
X18719Y-32366D02*
X18900Y-32366D01*
X19081Y-32366D02*
X18900Y-32366D01*
X18900Y-32366D02*
X18808Y-32245D01*
X18910Y-32360D02*
X18985Y-32245D01*
X15186Y-27175D02*
X15344Y-27175D01*
X15344Y-27175D02*
X15894Y-27175D01*
X15186Y-27685D02*
X15344Y-27685D01*
X15344Y-27685D02*
X15894Y-27685D01*
X15344Y-27175D02*
X15344Y-27685D01*
X15196Y-22445D02*
X15354Y-22445D01*
X15354Y-22445D02*
X15904Y-22445D01*
X15196Y-22955D02*
X15354Y-22955D01*
X15354Y-22955D02*
X15904Y-22955D01*
X15354Y-22445D02*
X15354Y-22955D01*
X20532Y-18134D02*
X24468Y-18134D01*
X17678Y-20634D02*
X20532Y-18134D01*
X27322Y-20634D02*
X24468Y-18134D01*
X17678Y-28705D02*
X17678Y-29000D01*
X27322Y-28705D02*
X27322Y-29000D01*
X17678Y-29000D02*
X27322Y-29000D01*
X27322Y-29000D02*
X27322Y-31460D01*
X17678Y-29000D02*
X17678Y-31460D01*
X17678Y-31460D02*
X27322Y-31460D01*
X17678Y-28705D02*
X17678Y-20634D01*
X18662Y-20634D02*
X18662Y-28705D01*
X17678Y-28705D02*
X18662Y-28705D01*
X17678Y-20634D02*
X18662Y-20634D01*
X17678Y-28705D02*
X17678Y-28489D01*
X17678Y-28705D02*
X18662Y-28705D01*
X18662Y-28705D02*
X18662Y-28489D01*
X18662Y-20890D02*
X18662Y-20634D01*
X18662Y-20634D02*
X17678Y-20634D01*
X17678Y-20634D02*
X17678Y-20890D01*
X26338Y-28705D02*
X26338Y-20634D01*
X27322Y-20634D02*
X27322Y-28705D01*
X26338Y-28705D02*
X27322Y-28705D01*
X26338Y-20634D02*
X27322Y-20634D01*
X26338Y-28705D02*
X26338Y-28489D01*
X26338Y-28705D02*
X27322Y-28705D01*
X27322Y-28705D02*
X27322Y-28489D01*
X27322Y-20890D02*
X27322Y-20634D01*
X27322Y-20634D02*
X26338Y-20634D01*
X26338Y-20634D02*
X26338Y-20890D01*
G54D21*
X24900Y-16100D02*
X25100Y-16100D01*
X25100Y-16100D02*
X25100Y-15900D01*
X24900Y-15900D02*
X25100Y-15900D01*
X24900Y-16100D02*
X24900Y-15900D01*
X23900Y-16100D02*
X24100Y-16100D01*
X24100Y-16100D02*
X24100Y-15900D01*
X23900Y-15900D02*
X24100Y-15900D01*
X23900Y-16100D02*
X23900Y-15900D01*
X22900Y-16100D02*
X23100Y-16100D01*
X23100Y-16100D02*
X23100Y-15900D01*
X22900Y-15900D02*
X23100Y-15900D01*
X22900Y-16100D02*
X22900Y-15900D01*
X21900Y-16100D02*
X22100Y-16100D01*
X22100Y-16100D02*
X22100Y-15900D01*
X21900Y-15900D02*
X22100Y-15900D01*
X21900Y-16100D02*
X21900Y-15900D01*
X20900Y-16100D02*
X21100Y-16100D01*
X21100Y-16100D02*
X21100Y-15900D01*
X20900Y-15900D02*
X21100Y-15900D01*
X20900Y-16100D02*
X20900Y-15900D01*
X19900Y-16100D02*
X20100Y-16100D01*
X20100Y-16100D02*
X20100Y-15900D01*
X19900Y-15900D02*
X20100Y-15900D01*
X19900Y-16100D02*
X19900Y-15900D01*
G54D24*
X24500Y-15750D02*
X24750Y-15500D01*
X24750Y-15500D02*
X25250Y-15500D01*
X25250Y-15500D02*
X25500Y-15750D01*
X25500Y-16250D02*
X25250Y-16500D01*
X25250Y-16500D02*
X24750Y-16500D01*
X24750Y-16500D02*
X24500Y-16250D01*
X22750Y-15500D02*
X23250Y-15500D01*
X23250Y-15500D02*
X23500Y-15750D01*
X23500Y-16250D02*
X23250Y-16500D01*
X23500Y-15750D02*
X23750Y-15500D01*
X23750Y-15500D02*
X24250Y-15500D01*
X24250Y-15500D02*
X24500Y-15750D01*
X24500Y-16250D02*
X24250Y-16500D01*
X24250Y-16500D02*
X23750Y-16500D01*
X23750Y-16500D02*
X23500Y-16250D01*
X21500Y-15750D02*
X21750Y-15500D01*
X21750Y-15500D02*
X22250Y-15500D01*
X22250Y-15500D02*
X22500Y-15750D01*
X22500Y-16250D02*
X22250Y-16500D01*
X22250Y-16500D02*
X21750Y-16500D01*
X21750Y-16500D02*
X21500Y-16250D01*
X22750Y-15500D02*
X22500Y-15750D01*
X22500Y-16250D02*
X22750Y-16500D01*
X23250Y-16500D02*
X22750Y-16500D01*
X19750Y-15500D02*
X20250Y-15500D01*
X20250Y-15500D02*
X20500Y-15750D01*
X20500Y-16250D02*
X20250Y-16500D01*
X20500Y-15750D02*
X20750Y-15500D01*
X20750Y-15500D02*
X21250Y-15500D01*
X21250Y-15500D02*
X21500Y-15750D01*
X21500Y-16250D02*
X21250Y-16500D01*
X21250Y-16500D02*
X20750Y-16500D01*
X20750Y-16500D02*
X20500Y-16250D01*
X19500Y-15750D02*
X19500Y-16250D01*
X19750Y-15500D02*
X19500Y-15750D01*
X19500Y-16250D02*
X19750Y-16500D01*
X20250Y-16500D02*
X19750Y-16500D01*
X25500Y-15750D02*
X25500Y-16250D01*
G54D10*
X11600Y-26378D02*
X10222Y-26378D01*
X10222Y-26378D02*
X10222Y-23720D01*
X10222Y-23720D02*
X10222Y-23622D01*
X10222Y-23622D02*
X12978Y-23622D01*
X12978Y-23622D02*
X12978Y-26378D01*
X12978Y-26378D02*
X11600Y-26378D01*
G54D27*
X20370Y-16000D02*
X20362Y-16071D01*
X20362Y-16071D02*
X20342Y-16140D01*
X20342Y-16140D02*
X20308Y-16204D01*
X20308Y-16204D02*
X20262Y-16260D01*
X20262Y-16260D02*
X20206Y-16306D01*
X20206Y-16306D02*
X20143Y-16341D01*
X20143Y-16341D02*
X20074Y-16362D01*
X20074Y-16362D02*
X20002Y-16369D01*
X20002Y-16369D02*
X19931Y-16363D01*
X19931Y-16363D02*
X19862Y-16343D01*
X19862Y-16343D02*
X19798Y-16309D01*
X19798Y-16309D02*
X19742Y-16264D01*
X19742Y-16264D02*
X19695Y-16209D01*
X19695Y-16209D02*
X19660Y-16145D01*
X19660Y-16145D02*
X19639Y-16076D01*
X19639Y-16076D02*
X19631Y-16005D01*
X19631Y-16005D02*
X19637Y-15934D01*
X19637Y-15934D02*
X19656Y-15864D01*
X19656Y-15864D02*
X19689Y-15800D01*
X19689Y-15800D02*
X19734Y-15743D01*
X19734Y-15743D02*
X19789Y-15697D01*
X19789Y-15697D02*
X19852Y-15661D01*
X19852Y-15661D02*
X19921Y-15639D01*
X19921Y-15639D02*
X19993Y-15631D01*
X19993Y-15631D02*
X20064Y-15636D01*
X20064Y-15636D02*
X20133Y-15656D01*
X20133Y-15656D02*
X20198Y-15688D01*
X20198Y-15688D02*
X20255Y-15733D01*
X20255Y-15733D02*
X20302Y-15787D01*
X20302Y-15787D02*
X20338Y-15850D01*
X20338Y-15850D02*
X20360Y-15919D01*
X20360Y-15919D02*
X20369Y-15990D01*
X20369Y-15990D02*
X20370Y-16000D01*
X21370Y-16000D02*
X21362Y-16071D01*
X21362Y-16071D02*
X21342Y-16140D01*
X21342Y-16140D02*
X21308Y-16204D01*
X21308Y-16204D02*
X21262Y-16260D01*
X21262Y-16260D02*
X21206Y-16306D01*
X21206Y-16306D02*
X21143Y-16341D01*
X21143Y-16341D02*
X21074Y-16362D01*
X21074Y-16362D02*
X21002Y-16369D01*
X21002Y-16369D02*
X20931Y-16363D01*
X20931Y-16363D02*
X20862Y-16343D01*
X20862Y-16343D02*
X20798Y-16309D01*
X20798Y-16309D02*
X20742Y-16264D01*
X20742Y-16264D02*
X20695Y-16209D01*
X20695Y-16209D02*
X20660Y-16145D01*
X20660Y-16145D02*
X20639Y-16076D01*
X20639Y-16076D02*
X20631Y-16005D01*
X20631Y-16005D02*
X20637Y-15934D01*
X20637Y-15934D02*
X20656Y-15864D01*
X20656Y-15864D02*
X20689Y-15800D01*
X20689Y-15800D02*
X20734Y-15743D01*
X20734Y-15743D02*
X20789Y-15697D01*
X20789Y-15697D02*
X20852Y-15661D01*
X20852Y-15661D02*
X20921Y-15639D01*
X20921Y-15639D02*
X20993Y-15631D01*
X20993Y-15631D02*
X21064Y-15636D01*
X21064Y-15636D02*
X21133Y-15656D01*
X21133Y-15656D02*
X21198Y-15688D01*
X21198Y-15688D02*
X21255Y-15733D01*
X21255Y-15733D02*
X21302Y-15787D01*
X21302Y-15787D02*
X21338Y-15850D01*
X21338Y-15850D02*
X21360Y-15919D01*
X21360Y-15919D02*
X21369Y-15990D01*
X21369Y-15990D02*
X21370Y-16000D01*
X22370Y-16000D02*
X22362Y-16071D01*
X22362Y-16071D02*
X22342Y-16140D01*
X22342Y-16140D02*
X22308Y-16204D01*
X22308Y-16204D02*
X22262Y-16260D01*
X22262Y-16260D02*
X22206Y-16306D01*
X22206Y-16306D02*
X22143Y-16341D01*
X22143Y-16341D02*
X22074Y-16362D01*
X22074Y-16362D02*
X22002Y-16369D01*
X22002Y-16369D02*
X21931Y-16363D01*
X21931Y-16363D02*
X21862Y-16343D01*
X21862Y-16343D02*
X21798Y-16309D01*
X21798Y-16309D02*
X21742Y-16264D01*
X21742Y-16264D02*
X21695Y-16209D01*
X21695Y-16209D02*
X21660Y-16145D01*
X21660Y-16145D02*
X21639Y-16076D01*
X21639Y-16076D02*
X21631Y-16005D01*
X21631Y-16005D02*
X21637Y-15934D01*
X21637Y-15934D02*
X21656Y-15864D01*
X21656Y-15864D02*
X21689Y-15800D01*
X21689Y-15800D02*
X21734Y-15743D01*
X21734Y-15743D02*
X21789Y-15697D01*
X21789Y-15697D02*
X21852Y-15661D01*
X21852Y-15661D02*
X21921Y-15639D01*
X21921Y-15639D02*
X21993Y-15631D01*
X21993Y-15631D02*
X22064Y-15636D01*
X22064Y-15636D02*
X22133Y-15656D01*
X22133Y-15656D02*
X22198Y-15688D01*
X22198Y-15688D02*
X22255Y-15733D01*
X22255Y-15733D02*
X22302Y-15787D01*
X22302Y-15787D02*
X22338Y-15850D01*
X22338Y-15850D02*
X22360Y-15919D01*
X22360Y-15919D02*
X22369Y-15990D01*
X22369Y-15990D02*
X22370Y-16000D01*
X23370Y-16000D02*
X23362Y-16071D01*
X23362Y-16071D02*
X23342Y-16140D01*
X23342Y-16140D02*
X23308Y-16204D01*
X23308Y-16204D02*
X23262Y-16260D01*
X23262Y-16260D02*
X23206Y-16306D01*
X23206Y-16306D02*
X23143Y-16341D01*
X23143Y-16341D02*
X23074Y-16362D01*
X23074Y-16362D02*
X23002Y-16369D01*
X23002Y-16369D02*
X22931Y-16363D01*
X22931Y-16363D02*
X22862Y-16343D01*
X22862Y-16343D02*
X22798Y-16309D01*
X22798Y-16309D02*
X22742Y-16264D01*
X22742Y-16264D02*
X22695Y-16209D01*
X22695Y-16209D02*
X22660Y-16145D01*
X22660Y-16145D02*
X22639Y-16076D01*
X22639Y-16076D02*
X22631Y-16005D01*
X22631Y-16005D02*
X22637Y-15934D01*
X22637Y-15934D02*
X22656Y-15864D01*
X22656Y-15864D02*
X22689Y-15800D01*
X22689Y-15800D02*
X22734Y-15743D01*
X22734Y-15743D02*
X22789Y-15697D01*
X22789Y-15697D02*
X22852Y-15661D01*
X22852Y-15661D02*
X22921Y-15639D01*
X22921Y-15639D02*
X22993Y-15631D01*
X22993Y-15631D02*
X23064Y-15636D01*
X23064Y-15636D02*
X23133Y-15656D01*
X23133Y-15656D02*
X23198Y-15688D01*
X23198Y-15688D02*
X23255Y-15733D01*
X23255Y-15733D02*
X23302Y-15787D01*
X23302Y-15787D02*
X23338Y-15850D01*
X23338Y-15850D02*
X23360Y-15919D01*
X23360Y-15919D02*
X23369Y-15990D01*
X23369Y-15990D02*
X23370Y-16000D01*
X24370Y-16000D02*
X24362Y-16071D01*
X24362Y-16071D02*
X24342Y-16140D01*
X24342Y-16140D02*
X24308Y-16204D01*
X24308Y-16204D02*
X24262Y-16260D01*
X24262Y-16260D02*
X24206Y-16306D01*
X24206Y-16306D02*
X24143Y-16341D01*
X24143Y-16341D02*
X24074Y-16362D01*
X24074Y-16362D02*
X24002Y-16369D01*
X24002Y-16369D02*
X23931Y-16363D01*
X23931Y-16363D02*
X23862Y-16343D01*
X23862Y-16343D02*
X23798Y-16309D01*
X23798Y-16309D02*
X23742Y-16264D01*
X23742Y-16264D02*
X23695Y-16209D01*
X23695Y-16209D02*
X23660Y-16145D01*
X23660Y-16145D02*
X23639Y-16076D01*
X23639Y-16076D02*
X23631Y-16005D01*
X23631Y-16005D02*
X23637Y-15934D01*
X23637Y-15934D02*
X23656Y-15864D01*
X23656Y-15864D02*
X23689Y-15800D01*
X23689Y-15800D02*
X23734Y-15743D01*
X23734Y-15743D02*
X23789Y-15697D01*
X23789Y-15697D02*
X23852Y-15661D01*
X23852Y-15661D02*
X23921Y-15639D01*
X23921Y-15639D02*
X23993Y-15631D01*
X23993Y-15631D02*
X24064Y-15636D01*
X24064Y-15636D02*
X24133Y-15656D01*
X24133Y-15656D02*
X24198Y-15688D01*
X24198Y-15688D02*
X24255Y-15733D01*
X24255Y-15733D02*
X24302Y-15787D01*
X24302Y-15787D02*
X24338Y-15850D01*
X24338Y-15850D02*
X24360Y-15919D01*
X24360Y-15919D02*
X24369Y-15990D01*
X24369Y-15990D02*
X24370Y-16000D01*
X25370Y-16000D02*
X25362Y-16071D01*
X25362Y-16071D02*
X25342Y-16140D01*
X25342Y-16140D02*
X25308Y-16204D01*
X25308Y-16204D02*
X25262Y-16260D01*
X25262Y-16260D02*
X25206Y-16306D01*
X25206Y-16306D02*
X25143Y-16341D01*
X25143Y-16341D02*
X25074Y-16362D01*
X25074Y-16362D02*
X25002Y-16369D01*
X25002Y-16369D02*
X24931Y-16363D01*
X24931Y-16363D02*
X24862Y-16343D01*
X24862Y-16343D02*
X24798Y-16309D01*
X24798Y-16309D02*
X24742Y-16264D01*
X24742Y-16264D02*
X24695Y-16209D01*
X24695Y-16209D02*
X24660Y-16145D01*
X24660Y-16145D02*
X24639Y-16076D01*
X24639Y-16076D02*
X24631Y-16005D01*
X24631Y-16005D02*
X24637Y-15934D01*
X24637Y-15934D02*
X24656Y-15864D01*
X24656Y-15864D02*
X24689Y-15800D01*
X24689Y-15800D02*
X24734Y-15743D01*
X24734Y-15743D02*
X24789Y-15697D01*
X24789Y-15697D02*
X24852Y-15661D01*
X24852Y-15661D02*
X24921Y-15639D01*
X24921Y-15639D02*
X24993Y-15631D01*
X24993Y-15631D02*
X25064Y-15636D01*
X25064Y-15636D02*
X25133Y-15656D01*
X25133Y-15656D02*
X25198Y-15688D01*
X25198Y-15688D02*
X25255Y-15733D01*
X25255Y-15733D02*
X25302Y-15787D01*
X25302Y-15787D02*
X25338Y-15850D01*
X25338Y-15850D02*
X25360Y-15919D01*
X25360Y-15919D02*
X25369Y-15990D01*
X25369Y-15990D02*
X25370Y-16000D01*
G54D28*
X21455Y-18340D02*
X21455Y-18483D01*
X21455Y-18483D02*
X21473Y-18500D01*
X21473Y-18500D02*
X21562Y-18500D01*
X21562Y-18500D02*
X21580Y-18483D01*
X21580Y-18483D02*
X21580Y-18340D01*
X21703Y-18500D02*
X21774Y-18500D01*
X21738Y-18500D02*
X21738Y-18340D01*
X21738Y-18358D02*
X21703Y-18394D01*
X21043Y-23000D02*
X21043Y-22876D01*
X21043Y-22876D02*
X21079Y-22840D01*
X21079Y-22840D02*
X21132Y-22840D01*
X21132Y-22840D02*
X21168Y-22876D01*
X21168Y-22876D02*
X21168Y-23000D01*
X21043Y-22912D02*
X21168Y-22912D01*
X21255Y-22840D02*
X21398Y-22840D01*
X21326Y-22840D02*
X21326Y-23000D01*
X21467Y-23000D02*
X21467Y-22840D01*
X21467Y-22840D02*
X21538Y-22912D01*
X21538Y-22912D02*
X21610Y-22840D01*
X21610Y-22840D02*
X21610Y-23000D01*
X21804Y-23000D02*
X21679Y-23000D01*
X21679Y-23000D02*
X21679Y-22840D01*
X21679Y-22840D02*
X21804Y-22840D01*
X21679Y-22912D02*
X21750Y-22912D01*
X21998Y-22858D02*
X21998Y-22840D01*
X21998Y-22840D02*
X21909Y-22840D01*
X21909Y-22840D02*
X21891Y-22858D01*
X21891Y-22858D02*
X21891Y-22983D01*
X21891Y-22983D02*
X21909Y-23000D01*
X21909Y-23000D02*
X21998Y-23000D01*
X21998Y-23000D02*
X22016Y-22983D01*
X22016Y-22983D02*
X22016Y-22929D01*
X22016Y-22929D02*
X21962Y-22929D01*
X22103Y-23000D02*
X22103Y-22876D01*
X22103Y-22876D02*
X22139Y-22840D01*
X22139Y-22840D02*
X22192Y-22840D01*
X22192Y-22840D02*
X22228Y-22876D01*
X22228Y-22876D02*
X22228Y-23000D01*
X22103Y-22912D02*
X22228Y-22912D01*
X22351Y-23000D02*
X22422Y-23000D01*
X22386Y-23000D02*
X22386Y-22840D01*
X22386Y-22858D02*
X22351Y-22894D01*
X22652Y-22858D02*
X22634Y-22840D01*
X22634Y-22840D02*
X22545Y-22840D01*
X22545Y-22840D02*
X22527Y-22858D01*
X22527Y-22858D02*
X22527Y-22983D01*
X22527Y-22983D02*
X22545Y-23000D01*
X22545Y-23000D02*
X22634Y-23000D01*
X22634Y-23000D02*
X22652Y-22983D01*
X22652Y-22983D02*
X22652Y-22929D01*
X22652Y-22929D02*
X22634Y-22912D01*
X22634Y-22912D02*
X22545Y-22912D01*
X22545Y-22912D02*
X22527Y-22929D01*
X22757Y-23000D02*
X22739Y-22983D01*
X22739Y-22983D02*
X22739Y-22929D01*
X22739Y-22929D02*
X22757Y-22912D01*
X22757Y-22912D02*
X22846Y-22912D01*
X22846Y-22912D02*
X22864Y-22894D01*
X22864Y-22894D02*
X22864Y-22858D01*
X22864Y-22858D02*
X22846Y-22840D01*
X22846Y-22840D02*
X22757Y-22840D01*
X22757Y-22840D02*
X22739Y-22858D01*
X22739Y-22858D02*
X22739Y-22894D01*
X22739Y-22894D02*
X22757Y-22912D01*
X22846Y-22912D02*
X22864Y-22929D01*
X22864Y-22929D02*
X22864Y-22983D01*
X22864Y-22983D02*
X22846Y-23000D01*
X22846Y-23000D02*
X22757Y-23000D01*
X20700Y-23351D02*
X20789Y-23280D01*
X20789Y-23280D02*
X20700Y-23208D01*
X20789Y-23280D02*
X20860Y-23280D01*
X20860Y-23139D02*
X20736Y-23139D01*
X20736Y-23139D02*
X20700Y-23103D01*
X20700Y-23103D02*
X20700Y-23050D01*
X20700Y-23050D02*
X20736Y-23014D01*
X20736Y-23014D02*
X20860Y-23014D01*
X20772Y-23139D02*
X20772Y-23014D01*
X20860Y-22891D02*
X20860Y-22820D01*
X20860Y-22856D02*
X20700Y-22856D01*
X20718Y-22856D02*
X20754Y-22891D01*
X19760Y-24385D02*
X19600Y-24385D01*
X19600Y-24385D02*
X19600Y-24278D01*
X19600Y-24278D02*
X19618Y-24260D01*
X19618Y-24260D02*
X19672Y-24260D01*
X19672Y-24260D02*
X19689Y-24278D01*
X19689Y-24278D02*
X19689Y-24385D01*
X19689Y-24331D02*
X19760Y-24260D01*
X19760Y-24048D02*
X19760Y-24173D01*
X19760Y-24173D02*
X19600Y-24173D01*
X19600Y-24173D02*
X19600Y-24048D01*
X19672Y-24173D02*
X19672Y-24102D01*
X19743Y-23961D02*
X19760Y-23943D01*
X19760Y-23943D02*
X19760Y-23854D01*
X19760Y-23854D02*
X19743Y-23836D01*
X19743Y-23836D02*
X19689Y-23836D01*
X19689Y-23836D02*
X19672Y-23854D01*
X19672Y-23854D02*
X19672Y-23943D01*
X19672Y-23943D02*
X19654Y-23961D01*
X19654Y-23961D02*
X19618Y-23961D01*
X19618Y-23961D02*
X19600Y-23943D01*
X19600Y-23943D02*
X19600Y-23854D01*
X19600Y-23854D02*
X19618Y-23836D01*
X19760Y-23731D02*
X19743Y-23749D01*
X19743Y-23749D02*
X19618Y-23749D01*
X19618Y-23749D02*
X19600Y-23731D01*
X19600Y-23731D02*
X19600Y-23642D01*
X19600Y-23642D02*
X19618Y-23624D01*
X19618Y-23624D02*
X19743Y-23624D01*
X19743Y-23624D02*
X19760Y-23642D01*
X19760Y-23642D02*
X19760Y-23731D01*
X19760Y-23537D02*
X19600Y-23537D01*
X19600Y-23537D02*
X19760Y-23412D01*
X19760Y-23412D02*
X19600Y-23412D01*
X19760Y-23325D02*
X19636Y-23325D01*
X19636Y-23325D02*
X19600Y-23289D01*
X19600Y-23289D02*
X19600Y-23236D01*
X19600Y-23236D02*
X19636Y-23200D01*
X19636Y-23200D02*
X19760Y-23200D01*
X19672Y-23325D02*
X19672Y-23200D01*
X19600Y-23113D02*
X19600Y-22970D01*
X19600Y-23042D02*
X19760Y-23042D01*
X19760Y-22883D02*
X19743Y-22901D01*
X19743Y-22901D02*
X19618Y-22901D01*
X19618Y-22901D02*
X19600Y-22883D01*
X19600Y-22883D02*
X19600Y-22794D01*
X19600Y-22794D02*
X19618Y-22776D01*
X19618Y-22776D02*
X19743Y-22776D01*
X19743Y-22776D02*
X19760Y-22794D01*
X19760Y-22794D02*
X19760Y-22883D01*
X19760Y-22689D02*
X19600Y-22689D01*
X19600Y-22689D02*
X19600Y-22582D01*
X19600Y-22582D02*
X19618Y-22564D01*
X19618Y-22564D02*
X19672Y-22564D01*
X19672Y-22564D02*
X19689Y-22582D01*
X19689Y-22582D02*
X19689Y-22689D01*
X19689Y-22635D02*
X19760Y-22564D01*
X19743Y-22477D02*
X19760Y-22459D01*
X19760Y-22459D02*
X19760Y-22370D01*
X19760Y-22370D02*
X19743Y-22352D01*
X19743Y-22352D02*
X19689Y-22352D01*
X19689Y-22352D02*
X19672Y-22370D01*
X19672Y-22370D02*
X19672Y-22459D01*
X19672Y-22459D02*
X19654Y-22477D01*
X19654Y-22477D02*
X19618Y-22477D01*
X19618Y-22477D02*
X19600Y-22459D01*
X19600Y-22459D02*
X19600Y-22370D01*
X19600Y-22370D02*
X19618Y-22352D01*
X19760Y-22265D02*
X19600Y-22265D01*
X19600Y-22265D02*
X19672Y-22194D01*
X19672Y-22194D02*
X19600Y-22122D01*
X19600Y-22122D02*
X19760Y-22122D01*
X19760Y-22035D02*
X19600Y-22035D01*
X19600Y-22053D02*
X19600Y-21946D01*
X19600Y-21946D02*
X19618Y-21928D01*
X19618Y-21928D02*
X19743Y-21928D01*
X19743Y-21928D02*
X19760Y-21946D01*
X19760Y-21946D02*
X19760Y-22053D01*
X19360Y-31151D02*
X19200Y-31151D01*
X19200Y-31151D02*
X19200Y-31044D01*
X19200Y-31044D02*
X19218Y-31026D01*
X19218Y-31026D02*
X19272Y-31026D01*
X19272Y-31026D02*
X19289Y-31044D01*
X19289Y-31044D02*
X19289Y-31151D01*
X19289Y-31097D02*
X19360Y-31026D01*
X19360Y-30939D02*
X19236Y-30939D01*
X19236Y-30939D02*
X19200Y-30903D01*
X19200Y-30903D02*
X19200Y-30850D01*
X19200Y-30850D02*
X19236Y-30814D01*
X19236Y-30814D02*
X19360Y-30814D01*
X19272Y-30939D02*
X19272Y-30814D01*
X19200Y-30727D02*
X19200Y-30602D01*
X19200Y-30602D02*
X19218Y-30602D01*
X19218Y-30602D02*
X19272Y-30673D01*
X19272Y-30673D02*
X19272Y-30620D01*
X19272Y-30620D02*
X19289Y-30602D01*
X19289Y-30602D02*
X19343Y-30602D01*
X19343Y-30602D02*
X19360Y-30620D01*
X19360Y-30620D02*
X19360Y-30709D01*
X19360Y-30709D02*
X19343Y-30727D01*
X18610Y-31162D02*
X18610Y-31287D01*
X18610Y-31287D02*
X18557Y-31287D01*
X18557Y-31287D02*
X18539Y-31269D01*
X18539Y-31269D02*
X18539Y-31180D01*
X18539Y-31180D02*
X18522Y-31162D01*
X18522Y-31162D02*
X18468Y-31162D01*
X18468Y-31162D02*
X18450Y-31180D01*
X18450Y-31180D02*
X18450Y-31269D01*
X18450Y-31269D02*
X18468Y-31287D01*
X18610Y-31021D02*
X18593Y-31021D01*
X18610Y-30738D02*
X18610Y-30863D01*
X18610Y-30863D02*
X18557Y-30863D01*
X18557Y-30863D02*
X18539Y-30845D01*
X18539Y-30845D02*
X18539Y-30756D01*
X18539Y-30756D02*
X18522Y-30738D01*
X18522Y-30738D02*
X18468Y-30738D01*
X18468Y-30738D02*
X18450Y-30756D01*
X18450Y-30756D02*
X18450Y-30845D01*
X18450Y-30845D02*
X18468Y-30863D01*
X18610Y-30633D02*
X18450Y-30633D01*
X18557Y-30633D02*
X18557Y-30615D01*
X18557Y-30615D02*
X18504Y-30526D01*
X18557Y-30615D02*
X18610Y-30526D01*
X18460Y-31151D02*
X18300Y-31151D01*
X18300Y-31151D02*
X18300Y-31044D01*
X18300Y-31044D02*
X18318Y-31026D01*
X18318Y-31026D02*
X18372Y-31026D01*
X18372Y-31026D02*
X18389Y-31044D01*
X18389Y-31044D02*
X18389Y-31151D01*
X18389Y-31097D02*
X18460Y-31026D01*
X18460Y-30939D02*
X18336Y-30939D01*
X18336Y-30939D02*
X18300Y-30903D01*
X18300Y-30903D02*
X18300Y-30850D01*
X18300Y-30850D02*
X18336Y-30814D01*
X18336Y-30814D02*
X18460Y-30814D01*
X18372Y-30939D02*
X18372Y-30814D01*
X18460Y-30602D02*
X18460Y-30727D01*
X18460Y-30727D02*
X18407Y-30727D01*
X18407Y-30727D02*
X18389Y-30709D01*
X18389Y-30709D02*
X18389Y-30620D01*
X18389Y-30620D02*
X18372Y-30602D01*
X18372Y-30602D02*
X18318Y-30602D01*
X18318Y-30602D02*
X18300Y-30620D01*
X18300Y-30620D02*
X18300Y-30709D01*
X18300Y-30709D02*
X18318Y-30727D01*
X17710Y-31162D02*
X17710Y-31287D01*
X17710Y-31287D02*
X17657Y-31287D01*
X17657Y-31287D02*
X17639Y-31269D01*
X17639Y-31269D02*
X17639Y-31180D01*
X17639Y-31180D02*
X17622Y-31162D01*
X17622Y-31162D02*
X17568Y-31162D01*
X17568Y-31162D02*
X17550Y-31180D01*
X17550Y-31180D02*
X17550Y-31269D01*
X17550Y-31269D02*
X17568Y-31287D01*
X17710Y-31021D02*
X17693Y-31021D01*
X17710Y-30738D02*
X17710Y-30863D01*
X17710Y-30863D02*
X17657Y-30863D01*
X17657Y-30863D02*
X17639Y-30845D01*
X17639Y-30845D02*
X17639Y-30756D01*
X17639Y-30756D02*
X17622Y-30738D01*
X17622Y-30738D02*
X17568Y-30738D01*
X17568Y-30738D02*
X17550Y-30756D01*
X17550Y-30756D02*
X17550Y-30845D01*
X17550Y-30845D02*
X17568Y-30863D01*
X17710Y-30633D02*
X17550Y-30633D01*
X17657Y-30633D02*
X17657Y-30615D01*
X17657Y-30615D02*
X17604Y-30526D01*
X17657Y-30615D02*
X17710Y-30526D01*
X18274Y-32969D02*
X18434Y-32969D01*
X18434Y-32969D02*
X18434Y-32826D01*
X18434Y-32632D02*
X18434Y-32757D01*
X18434Y-32757D02*
X18274Y-32757D01*
X18274Y-32757D02*
X18274Y-32632D01*
X18346Y-32757D02*
X18346Y-32686D01*
X18434Y-32527D02*
X18274Y-32527D01*
X18274Y-32545D02*
X18274Y-32438D01*
X18274Y-32438D02*
X18292Y-32420D01*
X18292Y-32420D02*
X18417Y-32420D01*
X18417Y-32420D02*
X18434Y-32438D01*
X18434Y-32438D02*
X18434Y-32545D01*
X18434Y-32333D02*
X18310Y-32333D01*
X18310Y-32333D02*
X18274Y-32297D01*
X18274Y-32297D02*
X18274Y-32244D01*
X18274Y-32244D02*
X18310Y-32208D01*
X18310Y-32208D02*
X18434Y-32208D01*
X18346Y-32333D02*
X18346Y-32208D01*
X18434Y-32085D02*
X18434Y-32014D01*
X18434Y-32050D02*
X18274Y-32050D01*
X18292Y-32050D02*
X18328Y-32085D01*
X18274Y-31909D02*
X18274Y-31784D01*
X18274Y-31784D02*
X18292Y-31784D01*
X18292Y-31784D02*
X18346Y-31855D01*
X18346Y-31855D02*
X18346Y-31802D01*
X18346Y-31802D02*
X18363Y-31784D01*
X18363Y-31784D02*
X18417Y-31784D01*
X18417Y-31784D02*
X18434Y-31802D01*
X18434Y-31802D02*
X18434Y-31891D01*
X18434Y-31891D02*
X18417Y-31909D01*
X17593Y-32786D02*
X17575Y-32786D01*
X17575Y-32786D02*
X17575Y-32875D01*
X17575Y-32875D02*
X17593Y-32893D01*
X17593Y-32893D02*
X17718Y-32893D01*
X17718Y-32893D02*
X17735Y-32875D01*
X17735Y-32875D02*
X17735Y-32786D01*
X17735Y-32786D02*
X17718Y-32768D01*
X17718Y-32768D02*
X17664Y-32768D01*
X17664Y-32768D02*
X17664Y-32822D01*
X17735Y-32681D02*
X17629Y-32681D01*
X17664Y-32681D02*
X17629Y-32645D01*
X17629Y-32645D02*
X17629Y-32592D01*
X17629Y-32592D02*
X17664Y-32556D01*
X17682Y-32469D02*
X17682Y-32344D01*
X17682Y-32344D02*
X17647Y-32344D01*
X17647Y-32344D02*
X17629Y-32362D01*
X17629Y-32362D02*
X17629Y-32451D01*
X17629Y-32451D02*
X17647Y-32469D01*
X17647Y-32469D02*
X17718Y-32469D01*
X17718Y-32469D02*
X17735Y-32451D01*
X17735Y-32451D02*
X17735Y-32362D01*
X17735Y-32362D02*
X17718Y-32344D01*
X17682Y-32257D02*
X17682Y-32132D01*
X17682Y-32132D02*
X17647Y-32132D01*
X17647Y-32132D02*
X17629Y-32150D01*
X17629Y-32150D02*
X17629Y-32239D01*
X17629Y-32239D02*
X17647Y-32257D01*
X17647Y-32257D02*
X17718Y-32257D01*
X17718Y-32257D02*
X17735Y-32239D01*
X17735Y-32239D02*
X17735Y-32150D01*
X17735Y-32150D02*
X17718Y-32132D01*
X17735Y-32045D02*
X17629Y-32045D01*
X17647Y-32045D02*
X17629Y-32027D01*
X17629Y-32027D02*
X17629Y-31956D01*
X17629Y-31956D02*
X17647Y-31938D01*
X17647Y-31938D02*
X17735Y-31938D01*
X19174Y-32863D02*
X19334Y-32863D01*
X19334Y-32863D02*
X19334Y-32720D01*
X19334Y-32526D02*
X19334Y-32651D01*
X19334Y-32651D02*
X19174Y-32651D01*
X19174Y-32651D02*
X19174Y-32526D01*
X19246Y-32651D02*
X19246Y-32580D01*
X19334Y-32421D02*
X19174Y-32421D01*
X19174Y-32439D02*
X19174Y-32332D01*
X19174Y-32332D02*
X19192Y-32314D01*
X19192Y-32314D02*
X19317Y-32314D01*
X19317Y-32314D02*
X19334Y-32332D01*
X19334Y-32332D02*
X19334Y-32439D01*
X19334Y-32227D02*
X19210Y-32227D01*
X19210Y-32227D02*
X19174Y-32191D01*
X19174Y-32191D02*
X19174Y-32138D01*
X19174Y-32138D02*
X19210Y-32102D01*
X19210Y-32102D02*
X19334Y-32102D01*
X19246Y-32227D02*
X19246Y-32102D01*
X19334Y-31997D02*
X19317Y-32015D01*
X19317Y-32015D02*
X19263Y-32015D01*
X19263Y-32015D02*
X19246Y-31997D01*
X19246Y-31997D02*
X19246Y-31908D01*
X19246Y-31908D02*
X19228Y-31890D01*
X19228Y-31890D02*
X19192Y-31890D01*
X19192Y-31890D02*
X19174Y-31908D01*
X19174Y-31908D02*
X19174Y-31997D01*
X19174Y-31997D02*
X19192Y-32015D01*
X19192Y-32015D02*
X19228Y-32015D01*
X19228Y-32015D02*
X19246Y-31997D01*
X19246Y-31908D02*
X19263Y-31890D01*
X19263Y-31890D02*
X19317Y-31890D01*
X19317Y-31890D02*
X19334Y-31908D01*
X19334Y-31908D02*
X19334Y-31997D01*
X18493Y-32786D02*
X18475Y-32786D01*
X18475Y-32786D02*
X18475Y-32875D01*
X18475Y-32875D02*
X18493Y-32893D01*
X18493Y-32893D02*
X18618Y-32893D01*
X18618Y-32893D02*
X18635Y-32875D01*
X18635Y-32875D02*
X18635Y-32786D01*
X18635Y-32786D02*
X18618Y-32768D01*
X18618Y-32768D02*
X18564Y-32768D01*
X18564Y-32768D02*
X18564Y-32822D01*
X18635Y-32681D02*
X18529Y-32681D01*
X18564Y-32681D02*
X18529Y-32645D01*
X18529Y-32645D02*
X18529Y-32592D01*
X18529Y-32592D02*
X18564Y-32556D01*
X18582Y-32469D02*
X18582Y-32344D01*
X18582Y-32344D02*
X18547Y-32344D01*
X18547Y-32344D02*
X18529Y-32362D01*
X18529Y-32362D02*
X18529Y-32451D01*
X18529Y-32451D02*
X18547Y-32469D01*
X18547Y-32469D02*
X18618Y-32469D01*
X18618Y-32469D02*
X18635Y-32451D01*
X18635Y-32451D02*
X18635Y-32362D01*
X18635Y-32362D02*
X18618Y-32344D01*
X18582Y-32257D02*
X18582Y-32132D01*
X18582Y-32132D02*
X18547Y-32132D01*
X18547Y-32132D02*
X18529Y-32150D01*
X18529Y-32150D02*
X18529Y-32239D01*
X18529Y-32239D02*
X18547Y-32257D01*
X18547Y-32257D02*
X18618Y-32257D01*
X18618Y-32257D02*
X18635Y-32239D01*
X18635Y-32239D02*
X18635Y-32150D01*
X18635Y-32150D02*
X18618Y-32132D01*
X18635Y-32045D02*
X18529Y-32045D01*
X18547Y-32045D02*
X18529Y-32027D01*
X18529Y-32027D02*
X18529Y-31956D01*
X18529Y-31956D02*
X18547Y-31938D01*
X18547Y-31938D02*
X18635Y-31938D01*
X15307Y-27030D02*
X15307Y-26870D01*
X15289Y-26870D02*
X15396Y-26870D01*
X15396Y-26870D02*
X15414Y-26888D01*
X15414Y-26888D02*
X15414Y-27013D01*
X15414Y-27013D02*
X15396Y-27030D01*
X15396Y-27030D02*
X15289Y-27030D01*
X15501Y-27030D02*
X15626Y-26870D01*
X15501Y-26870D02*
X15626Y-27030D01*
X15838Y-27030D02*
X15713Y-27030D01*
X15713Y-27030D02*
X15713Y-26977D01*
X15713Y-26977D02*
X15731Y-26959D01*
X15731Y-26959D02*
X15820Y-26959D01*
X15820Y-26959D02*
X15838Y-26942D01*
X15838Y-26942D02*
X15838Y-26888D01*
X15838Y-26888D02*
X15820Y-26870D01*
X15820Y-26870D02*
X15731Y-26870D01*
X15731Y-26870D02*
X15713Y-26888D01*
X14807Y-27980D02*
X14807Y-27820D01*
X14789Y-27820D02*
X14896Y-27820D01*
X14896Y-27820D02*
X14914Y-27838D01*
X14914Y-27838D02*
X14914Y-27963D01*
X14914Y-27963D02*
X14896Y-27980D01*
X14896Y-27980D02*
X14789Y-27980D01*
X15019Y-27980D02*
X15090Y-27980D01*
X15055Y-27980D02*
X15055Y-27820D01*
X15019Y-27820D02*
X15090Y-27820D01*
X15231Y-27980D02*
X15213Y-27963D01*
X15213Y-27963D02*
X15213Y-27838D01*
X15213Y-27838D02*
X15231Y-27820D01*
X15231Y-27820D02*
X15320Y-27820D01*
X15320Y-27820D02*
X15338Y-27838D01*
X15338Y-27838D02*
X15338Y-27963D01*
X15338Y-27963D02*
X15320Y-27980D01*
X15320Y-27980D02*
X15231Y-27980D01*
X15443Y-27980D02*
X15443Y-27820D01*
X15425Y-27820D02*
X15532Y-27820D01*
X15532Y-27820D02*
X15550Y-27838D01*
X15550Y-27838D02*
X15550Y-27963D01*
X15550Y-27963D02*
X15532Y-27980D01*
X15532Y-27980D02*
X15425Y-27980D01*
X15762Y-27980D02*
X15637Y-27980D01*
X15637Y-27980D02*
X15637Y-27820D01*
X15637Y-27820D02*
X15762Y-27820D01*
X15637Y-27892D02*
X15708Y-27892D01*
X15849Y-27963D02*
X15867Y-27980D01*
X15867Y-27980D02*
X15956Y-27980D01*
X15956Y-27980D02*
X15974Y-27963D01*
X15974Y-27963D02*
X15974Y-27909D01*
X15974Y-27909D02*
X15956Y-27892D01*
X15956Y-27892D02*
X15867Y-27892D01*
X15867Y-27892D02*
X15849Y-27874D01*
X15849Y-27874D02*
X15849Y-27838D01*
X15849Y-27838D02*
X15867Y-27820D01*
X15867Y-27820D02*
X15956Y-27820D01*
X15956Y-27820D02*
X15974Y-27838D01*
X16079Y-27980D02*
X16061Y-27963D01*
X16061Y-27963D02*
X16061Y-27838D01*
X16061Y-27838D02*
X16079Y-27820D01*
X16079Y-27820D02*
X16168Y-27820D01*
X16168Y-27820D02*
X16186Y-27838D01*
X16186Y-27838D02*
X16186Y-27963D01*
X16186Y-27963D02*
X16168Y-27980D01*
X16168Y-27980D02*
X16079Y-27980D01*
X16291Y-27980D02*
X16291Y-27820D01*
X16273Y-27820D02*
X16380Y-27820D01*
X16380Y-27820D02*
X16398Y-27838D01*
X16398Y-27838D02*
X16398Y-27963D01*
X16398Y-27963D02*
X16380Y-27980D01*
X16380Y-27980D02*
X16273Y-27980D01*
X15317Y-22300D02*
X15317Y-22140D01*
X15299Y-22140D02*
X15406Y-22140D01*
X15406Y-22140D02*
X15424Y-22158D01*
X15424Y-22158D02*
X15424Y-22283D01*
X15424Y-22283D02*
X15406Y-22300D01*
X15406Y-22300D02*
X15299Y-22300D01*
X15511Y-22300D02*
X15636Y-22140D01*
X15511Y-22140D02*
X15636Y-22300D01*
X15759Y-22300D02*
X15830Y-22300D01*
X15794Y-22300D02*
X15794Y-22140D01*
X15794Y-22158D02*
X15759Y-22194D01*
X14817Y-23250D02*
X14817Y-23090D01*
X14799Y-23090D02*
X14906Y-23090D01*
X14906Y-23090D02*
X14924Y-23108D01*
X14924Y-23108D02*
X14924Y-23233D01*
X14924Y-23233D02*
X14906Y-23250D01*
X14906Y-23250D02*
X14799Y-23250D01*
X15029Y-23250D02*
X15100Y-23250D01*
X15065Y-23250D02*
X15065Y-23090D01*
X15029Y-23090D02*
X15100Y-23090D01*
X15241Y-23250D02*
X15223Y-23233D01*
X15223Y-23233D02*
X15223Y-23108D01*
X15223Y-23108D02*
X15241Y-23090D01*
X15241Y-23090D02*
X15330Y-23090D01*
X15330Y-23090D02*
X15348Y-23108D01*
X15348Y-23108D02*
X15348Y-23233D01*
X15348Y-23233D02*
X15330Y-23250D01*
X15330Y-23250D02*
X15241Y-23250D01*
X15453Y-23250D02*
X15453Y-23090D01*
X15435Y-23090D02*
X15542Y-23090D01*
X15542Y-23090D02*
X15560Y-23108D01*
X15560Y-23108D02*
X15560Y-23233D01*
X15560Y-23233D02*
X15542Y-23250D01*
X15542Y-23250D02*
X15435Y-23250D01*
X15772Y-23250D02*
X15647Y-23250D01*
X15647Y-23250D02*
X15647Y-23090D01*
X15647Y-23090D02*
X15772Y-23090D01*
X15647Y-23162D02*
X15718Y-23162D01*
X15859Y-23233D02*
X15877Y-23250D01*
X15877Y-23250D02*
X15966Y-23250D01*
X15966Y-23250D02*
X15984Y-23233D01*
X15984Y-23233D02*
X15984Y-23179D01*
X15984Y-23179D02*
X15966Y-23162D01*
X15966Y-23162D02*
X15877Y-23162D01*
X15877Y-23162D02*
X15859Y-23144D01*
X15859Y-23144D02*
X15859Y-23108D01*
X15859Y-23108D02*
X15877Y-23090D01*
X15877Y-23090D02*
X15966Y-23090D01*
X15966Y-23090D02*
X15984Y-23108D01*
X16089Y-23250D02*
X16071Y-23233D01*
X16071Y-23233D02*
X16071Y-23108D01*
X16071Y-23108D02*
X16089Y-23090D01*
X16089Y-23090D02*
X16178Y-23090D01*
X16178Y-23090D02*
X16196Y-23108D01*
X16196Y-23108D02*
X16196Y-23233D01*
X16196Y-23233D02*
X16178Y-23250D01*
X16178Y-23250D02*
X16089Y-23250D01*
X16301Y-23250D02*
X16301Y-23090D01*
X16283Y-23090D02*
X16390Y-23090D01*
X16390Y-23090D02*
X16408Y-23108D01*
X16408Y-23108D02*
X16408Y-23233D01*
X16408Y-23233D02*
X16390Y-23250D01*
X16390Y-23250D02*
X16283Y-23250D01*
X19205Y-27840D02*
X19205Y-27983D01*
X19205Y-27983D02*
X19223Y-28000D01*
X19223Y-28000D02*
X19312Y-28000D01*
X19312Y-28000D02*
X19330Y-27983D01*
X19330Y-27983D02*
X19330Y-27840D01*
X19542Y-28000D02*
X19417Y-28000D01*
X19417Y-28000D02*
X19417Y-27947D01*
X19417Y-27947D02*
X19435Y-27929D01*
X19435Y-27929D02*
X19524Y-27929D01*
X19524Y-27929D02*
X19542Y-27912D01*
X19542Y-27912D02*
X19542Y-27858D01*
X19542Y-27858D02*
X19524Y-27840D01*
X19524Y-27840D02*
X19435Y-27840D01*
X19435Y-27840D02*
X19417Y-27858D01*
X18649Y-28500D02*
X18774Y-28340D01*
X18649Y-28340D02*
X18774Y-28500D01*
X18861Y-28500D02*
X18861Y-28340D01*
X18861Y-28340D02*
X18968Y-28340D01*
X18968Y-28340D02*
X18986Y-28358D01*
X18986Y-28358D02*
X18986Y-28394D01*
X18986Y-28394D02*
X18968Y-28412D01*
X18968Y-28412D02*
X18861Y-28412D01*
X18968Y-28412D02*
X18986Y-28447D01*
X18986Y-28447D02*
X18986Y-28483D01*
X18986Y-28483D02*
X18968Y-28500D01*
X18968Y-28500D02*
X18861Y-28500D01*
X19198Y-28500D02*
X19073Y-28500D01*
X19073Y-28500D02*
X19073Y-28340D01*
X19073Y-28340D02*
X19198Y-28340D01*
X19073Y-28412D02*
X19144Y-28412D01*
X19410Y-28500D02*
X19285Y-28500D01*
X19285Y-28500D02*
X19285Y-28340D01*
X19285Y-28340D02*
X19410Y-28340D01*
X19285Y-28412D02*
X19356Y-28412D01*
X19515Y-28429D02*
X19604Y-28429D01*
X19745Y-28500D02*
X19816Y-28500D01*
X19780Y-28500D02*
X19780Y-28340D01*
X19780Y-28358D02*
X19745Y-28394D01*
X19921Y-28500D02*
X19921Y-28340D01*
X19921Y-28340D02*
X20028Y-28340D01*
X20028Y-28340D02*
X20046Y-28358D01*
X20046Y-28358D02*
X20046Y-28394D01*
X20046Y-28394D02*
X20028Y-28412D01*
X20028Y-28412D02*
X19921Y-28412D01*
X20028Y-28412D02*
X20046Y-28447D01*
X20046Y-28447D02*
X20046Y-28483D01*
X20046Y-28483D02*
X20028Y-28500D01*
X20028Y-28500D02*
X19921Y-28500D01*
X20133Y-28340D02*
X20258Y-28340D01*
X20258Y-28340D02*
X20258Y-28358D01*
X20258Y-28358D02*
X20187Y-28412D01*
X20187Y-28412D02*
X20240Y-28412D01*
X20240Y-28412D02*
X20258Y-28429D01*
X20258Y-28429D02*
X20258Y-28483D01*
X20258Y-28483D02*
X20240Y-28500D01*
X20240Y-28500D02*
X20151Y-28500D01*
X20151Y-28500D02*
X20133Y-28483D01*
G54D29*
G54D28*
X19890Y-15169D02*
X19946Y-15280D01*
X19946Y-15280D02*
X20057Y-15280D01*
X20057Y-15280D02*
X20112Y-15225D01*
X20112Y-15225D02*
X20112Y-14780D01*
X20001Y-14780D02*
X20223Y-14780D01*
X20480Y-15280D02*
X20480Y-14780D01*
X20480Y-14780D02*
X20813Y-14780D01*
X20813Y-14780D02*
X20869Y-14836D01*
X20869Y-14836D02*
X20869Y-15003D01*
X20869Y-15003D02*
X20813Y-15058D01*
X20813Y-15058D02*
X20480Y-15058D01*
X21181Y-15280D02*
X21403Y-15280D01*
X21292Y-15280D02*
X21292Y-14780D01*
X21292Y-14836D02*
X21181Y-14947D01*
X19875Y-17250D02*
X19875Y-16750D01*
X19875Y-16750D02*
X20264Y-16750D01*
X19875Y-16973D02*
X20097Y-16973D01*
X20465Y-16750D02*
X20910Y-16750D01*
X20687Y-16750D02*
X20687Y-17250D01*
X21111Y-17250D02*
X21111Y-16750D01*
X21055Y-16750D02*
X21388Y-16750D01*
X21388Y-16750D02*
X21444Y-16806D01*
X21444Y-16806D02*
X21444Y-17195D01*
X21444Y-17195D02*
X21388Y-17250D01*
X21388Y-17250D02*
X21055Y-17250D01*
X21701Y-17250D02*
X21923Y-17250D01*
X21812Y-17250D02*
X21812Y-16750D01*
X21701Y-16750D02*
X21923Y-16750D01*
G54D30*
X13965Y-25450D02*
X13565Y-25450D01*
X13565Y-25450D02*
X13565Y-25183D01*
X13565Y-25183D02*
X13610Y-25139D01*
X13610Y-25139D02*
X13743Y-25139D01*
X13743Y-25139D02*
X13788Y-25183D01*
X13788Y-25183D02*
X13788Y-25450D01*
X13965Y-24867D02*
X13965Y-24689D01*
X13965Y-24778D02*
X13565Y-24778D01*
X13610Y-24778D02*
X13699Y-24867D01*
X13429Y-25633D02*
X13473Y-25677D01*
X13473Y-25677D02*
X13473Y-25900D01*
X13473Y-25900D02*
X13429Y-25944D01*
X13429Y-25944D02*
X13118Y-25944D01*
X13118Y-25944D02*
X13073Y-25900D01*
X13073Y-25900D02*
X13073Y-25677D01*
X13073Y-25677D02*
X13118Y-25633D01*
X13473Y-25406D02*
X13429Y-25450D01*
X13429Y-25450D02*
X13118Y-25450D01*
X13118Y-25450D02*
X13073Y-25406D01*
X13073Y-25406D02*
X13073Y-25183D01*
X13073Y-25183D02*
X13118Y-25139D01*
X13118Y-25139D02*
X13429Y-25139D01*
X13429Y-25139D02*
X13473Y-25183D01*
X13473Y-25183D02*
X13473Y-25406D01*
X13473Y-24956D02*
X13073Y-24956D01*
X13073Y-24956D02*
X13473Y-24645D01*
X13473Y-24645D02*
X13073Y-24645D01*
X13473Y-24462D02*
X13073Y-24462D01*
X13073Y-24462D02*
X13473Y-24151D01*
X13473Y-24151D02*
X13073Y-24151D01*
G54D29*
X11014Y-24073D02*
X11014Y-24540D01*
X11014Y-24540D02*
X10814Y-24540D01*
X10814Y-24540D02*
X10748Y-24473D01*
X10748Y-24473D02*
X10748Y-24140D01*
X10748Y-24140D02*
X10681Y-24073D01*
X10681Y-24073D02*
X10481Y-24073D01*
X10481Y-24073D02*
X10414Y-24140D01*
X10414Y-24140D02*
X10414Y-24473D01*
X10414Y-24473D02*
X10481Y-24540D01*
X11014Y-25784D02*
X11014Y-25518D01*
X11014Y-25651D02*
X10414Y-25651D01*
X10481Y-25651D02*
X10614Y-25784D01*
M02*
